<svg preserveAspectRatio="none" overflow="visible" style="display: block;" width="20" height="20" viewBox="0 0 20 20" fill="none" xmlns="http://www.w3.org/2000/svg">
<path id="Union" fill-rule="evenodd" clip-rule="evenodd" d="M10.705 0.290776C10.6096 0.195951 10.4999 0.124319 10.3828 0.0758788ZM11 3.41421L14.2929 6.70711C14.6834 7.09763 15.3166 7.09763 15.7071 6.70711C16.0976 6.31658 16.0976 5.68342 15.7071 5.29289L10.7076 0.293423M9.29236 0.293423L4.29289 5.29289C3.90237 5.68342 3.90237 6.31658 4.29289 6.70711C4.68342 7.09763 5.31658 7.09763 5.70711 6.70711L9 3.41421V13C9 13.5523 9.44771 14 10 14C10.5523 14 11 13.5523 11 13V3.41421M10.3828 0.0758788C10.2649 0.0269856 10.1356 0 10 0C9.72494 0 9.47581 0.111056 9.29502 0.290776M1 12C1.55228 12 2 12.4477 2 13V17C2 17.2652 2.10536 17.5196 2.29289 17.7071C2.48043 17.8946 2.73478 18 3 18H17C17.2652 18 17.5196 17.8946 17.7071 17.7071C17.8946 17.5196 18 17.2652 18 17V13C18 12.4477 18.4477 12 19 12C19.5523 12 20 12.4477 20 13V17C20 17.7957 19.6839 18.5587 19.1213 19.1213C18.5587 19.6839 17.7957 20 17 20H3C2.20435 20 1.44129 19.6839 0.87868 19.1213C0.31607 18.5587 0 17.7957 0 17V13C0 12.4477 0.447715 12 1 12Z" fill="#020617"/>
</svg>
