<svg width="24" height="24" viewBox="0 0 24 24" fill="none" xmlns="http://www.w3.org/2000/svg">
<rect width="24" height="24" fill="#F5F5F5"/>
<g id="Lucide Icons - 24x24">
<g id="Radix Icons - 16x16px">
<g id="Frame 777">
<g id="icon_list">
<g id="zap">
<g id="Icons 24x24 / zap">
<path id="Union" d="M12.2313 1.35926C12.5155 1.01833 12.9911 0.906164 13.3983 1.08289C13.8053 1.25974 14.0471 1.68354 13.992 2.12391L13.1327 8.99988H20.9998C21.3878 8.99988 21.7405 9.2247 21.9051 9.57606C22.0696 9.9274 22.0168 10.3425 21.7684 10.6405L11.7684 22.6405C11.4842 22.9815 11.0086 23.0936 10.6014 22.9169C10.1944 22.74 9.95262 22.3162 10.0077 21.8759L10.867 14.9999H2.99985C2.61184 14.9999 2.25915 14.7751 2.09458 14.4237C1.93011 14.0724 1.98294 13.6573 2.23129 13.3593L12.2313 1.35926ZM5.13559 12.9999H11.9998C12.2867 12.9999 12.56 13.1228 12.7498 13.3378C12.9397 13.5528 13.0276 13.8393 12.992 14.1239L12.4149 18.7382L18.8641 10.9999H11.9998C11.713 10.9999 11.4397 10.877 11.2498 10.662C11.06 10.447 10.9721 10.1605 11.0077 9.87586L11.5838 5.26063L5.13559 12.9999Z" fill="#020617"/>
<path id="icon_overlay" fill-rule="evenodd" clip-rule="evenodd" d="M13.3982 1.08275C13.8054 1.25952 14.0474 1.68359 13.9923 2.12409L13.1328 9.00006H21C21.388 9.00006 21.741 9.22452 21.9056 9.5759C22.0702 9.92729 22.0166 10.3422 21.7682 10.6402L11.7682 22.6402C11.484 22.9813 11.009 23.0941 10.6018 22.9174C10.1946 22.7406 9.95267 22.3165 10.0077 21.876L10.8672 15.0001H3.00001C2.61199 15.0001 2.259 14.7756 2.09442 14.4242C1.92984 14.0728 1.98339 13.658 2.23179 13.3599L12.2318 1.35987C12.516 1.01884 12.991 0.905986 13.3982 1.08275ZM5.13505 13.0001H12C12.2868 13.0001 12.5599 13.1232 12.7497 13.3383C12.9395 13.5533 13.0279 13.8395 12.9923 14.1241L12.4154 18.7396L18.865 11.0001H12C11.7132 11.0001 11.4402 10.8769 11.2503 10.6619C11.0605 10.4468 10.9722 10.1606 11.0077 9.87602L11.5847 5.26051L5.13505 13.0001Z" fill="#020617"/>
</g>
</g>
</g>
</g>
</g>
</g>
</svg>
