<svg preserveAspectRatio="none" overflow="visible" style="display: block;" width="21.8872" height="21.8676" viewBox="0 0 21.8872 21.8676" fill="none" xmlns="http://www.w3.org/2000/svg">
<path id="Union" d="M9.36839 6.94456C10.2265 7.00602 11.0616 7.25085 11.8166 7.66331C12.5717 8.07582 13.229 8.64624 13.7444 9.33519C14.0751 9.77731 13.9851 10.4037 13.5432 10.7346C13.101 11.0654 12.4736 10.9755 12.1428 10.5334C11.7992 10.0741 11.361 9.6932 10.8576 9.41819C10.3544 9.1433 9.79779 8.97968 9.22581 8.9387C8.65382 8.89774 8.07953 8.98051 7.54222 9.18089C7.00481 9.38136 6.51609 9.69515 6.11058 10.1008L3.1223 13.0881C2.3937 13.8425 1.99111 14.8538 2.00023 15.9026C2.00939 16.9513 2.43052 17.9549 3.1721 18.6965C3.9136 19.4378 4.91661 19.8582 5.96507 19.8674C7.01386 19.8765 8.02511 19.473 8.77952 18.7444L10.4768 17.0471C10.8673 16.6566 11.5003 16.6566 11.8909 17.0471C12.2813 17.4376 12.2814 18.0707 11.8909 18.4612L10.1682 20.1838C9.03672 21.2764 7.52133 21.881 5.94847 21.8674C4.37547 21.8537 2.87045 21.2228 1.75804 20.1106C0.645686 18.9982 0.0140018 17.4932 0.000226624 15.9201C-0.0134439 14.347 0.591848 12.8311 1.6848 11.6994L1.69652 11.6867L4.69652 8.68675C5.30475 8.07833 6.03695 7.60754 6.843 7.30687C7.649 7.00624 8.51034 6.88313 9.36839 6.94456ZM15.9397 0.000224508C17.5127 0.0139972 19.0178 0.645758 20.1301 1.75804C21.2423 2.87045 21.8733 4.37547 21.8869 5.94847C21.9005 7.52133 21.296 9.03671 20.2034 10.1682L17.1907 13.1809C16.5824 13.7892 15.8502 14.2601 15.0442 14.5608C14.2382 14.8613 13.3768 14.9845 12.5188 14.9231C11.6607 14.8616 10.8255 14.6168 10.0705 14.2043C9.31563 13.7918 8.65808 13.2213 8.1428 12.5325C7.81232 12.0903 7.90295 11.4638 8.34495 11.133C8.78715 10.8024 9.41359 10.8931 9.74437 11.3352C10.0879 11.7943 10.5263 12.1745 11.0295 12.4494C11.5327 12.7243 12.0895 12.8879 12.6614 12.9289C13.2332 12.9699 13.8077 12.887 14.345 12.6867C14.8823 12.4863 15.3711 12.1724 15.7766 11.7668L18.7639 8.77952C19.4925 8.02511 19.8961 7.01386 19.8869 5.96507C19.8777 4.91661 19.4573 3.9136 18.716 3.1721C17.9745 2.43059 16.9708 2.00939 15.9221 2.00022C14.8734 1.99118 13.863 2.39474 13.1086 3.12327L13.1076 3.12229L11.3987 4.82249C11.007 5.21175 10.3739 5.2102 9.9846 4.81858C9.59541 4.42695 9.59702 3.79386 9.98851 3.40452L11.7082 1.69456C11.7116 1.69123 11.7156 1.68807 11.719 1.68479C12.8505 0.591903 14.3666 -0.0133813 15.9397 0.000224508Z" fill="#020617"/>
</svg>
