<svg preserveAspectRatio="none" overflow="visible" style="display: block;" width="20" height="22" viewBox="0 0 20 22" fill="none" xmlns="http://www.w3.org/2000/svg">
<path id="Union" d="M16 0C18.2091 0 20 1.79086 20 4C20 6.20914 18.2091 8 16 8C14.8882 8 13.8831 7.54567 13.1582 6.81348L7.84863 9.91211C7.94625 10.2581 8 10.6227 8 11C8 11.3765 7.94685 11.7405 7.84961 12.0859L13.1611 15.1816C13.8858 14.4517 14.8902 14 16 14C18.2091 14 20 15.7909 20 18C20 20.2091 18.2091 22 16 22C13.7909 22 12 20.2091 12 18C12 17.6214 12.0531 17.2553 12.1514 16.9082L6.84082 13.8135C6.11591 14.5454 5.11153 15 4 15C1.79086 15 0 13.2091 0 11C0 8.79086 1.79086 7 4 7C5.11103 7 6.11598 7.45324 6.84082 8.18457L12.1504 5.08691C12.053 4.74124 12 4.37683 12 4C12 1.79086 13.7909 0 16 0ZM16 16C15.3046 16 14.6924 16.355 14.334 16.8936C14.3191 16.9272 14.3031 16.9607 14.2842 16.9932C14.265 17.026 14.2439 17.0571 14.2217 17.0869C14.0808 17.3608 14 17.6708 14 18C14 19.1046 14.8954 20 16 20C17.1046 20 18 19.1046 18 18C18 16.8954 17.1046 16 16 16ZM4 9C2.89543 9 2 9.89543 2 11C2 12.1046 2.89543 13 4 13C4.73268 13 5.37041 12.6043 5.71875 12.0166C5.72084 12.0129 5.72345 12.0095 5.72559 12.0059C5.7312 11.9962 5.73728 11.9869 5.74316 11.9775C5.90572 11.6883 6 11.3554 6 11C6 9.89543 5.10457 9 4 9ZM16 2C14.8954 2 14 2.89543 14 4C14 5.10457 14.8954 6 16 6C17.1046 6 18 5.10457 18 4C18 2.89543 17.1046 2 16 2Z" fill="#020617"/>
</svg>
